<?xml version="1.0" encoding="utf-8"?>
<!-- Generator: Adobe Illustrator 24.0.0, SVG Export Plug-In . SVG Version: 6.00 Build 0)  -->
<svg version="1.1" id="Layer_1" xmlns="http://www.w3.org/2000/svg" xmlns:xlink="http://www.w3.org/1999/xlink" x="0px" y="0px"
	 viewBox="0 0 284.19 119.61" style="enable-background:new 0 0 284.19 119.61;" xml:space="preserve">
<style type="text/css">
	.logo {
		display: none;
	}

	.logo:target {
		display: inline;
	}

	#black {
		fill: #000;
	}

	#white {
		fill: #FFF;
	}
</style>

<g class="logo" id="black">
	<g>
		<path d="M16.2,89.79H0V2.91h16.2V89.79z"/>
		<path d="M84.84,59.67c0,9.44-2.84,17.1-8.52,22.98c-5.68,5.88-13.08,8.82-22.2,8.82c-8.72,0-15.8-2.86-21.24-8.58
			c-5.44-5.72-8.16-13.14-8.16-22.26c0-9.2,2.86-16.76,8.58-22.68c5.72-5.92,13.06-8.88,22.02-8.88c8.72,0,15.82,2.86,21.3,8.58
			C82.1,43.37,84.84,50.72,84.84,59.67z M68.64,60.39c0-5.36-1.3-9.7-3.9-13.02c-2.6-3.32-5.98-4.98-10.14-4.98
			c-4.16,0-7.48,1.62-9.96,4.86c-2.48,3.24-3.72,7.5-3.72,12.78c0,5.36,1.32,9.7,3.96,13.02c2.64,3.32,6.08,4.98,10.32,4.98
			c4.16,0,7.44-1.6,9.84-4.8C67.44,70.04,68.64,65.75,68.64,60.39z"/>
		<path d="M147.12,88.95c0,5.2-0.28,8.92-0.84,11.16c-0.8,3.68-2.64,6.96-5.52,9.84c-5.2,5.2-12.48,7.8-21.84,7.8
			c-6.96,0-13.32-1.32-19.08-3.96c-3.36-1.6-5.84-3.2-7.44-4.8l6.48-10.56c6.88,3.92,12.96,5.88,18.24,5.88
			c5.76,0,9.72-1.6,11.88-4.8c1.44-2.16,2.16-5.36,2.16-9.6v-3.72c-4.16,2.4-8.76,3.6-13.8,3.6c-8.48,0-15.16-3-20.04-9
			c-4.32-5.44-6.48-12.12-6.48-20.04c0-8.96,2.94-16.48,8.82-22.56c5.88-6.08,13.5-9.12,22.86-9.12c8.08,0,16.28,2.08,24.6,6.24
			V88.95z M131.16,73.83v-30c-2.8-1.2-5.76-1.8-8.88-1.8c-4.32,0-7.94,1.6-10.86,4.8c-2.92,3.2-4.38,7.56-4.38,13.08
			c0,5.28,1.36,9.42,4.08,12.42c2.72,3,6.04,4.5,9.96,4.5c2.16,0,4.44-0.44,6.84-1.32C129.6,74.79,130.68,74.24,131.16,73.83z"/>
	</g>
	<path d="M277.57,6.79v101.34H176.23V6.79H277.57 M281.57,2.79H172.23v109.34h109.34V2.79L281.57,2.79z"/>
	<g>
		<path d="M237.67,57.18c0,8.61-0.16,14.06-0.47,16.34c-0.63,5-2.34,8.9-5.13,11.68c-3.99,3.99-9.47,5.99-16.44,5.99
			s-12.51-2.06-16.62-6.18c-2.6-2.6-4.24-6.02-4.94-10.26c-0.38-2.28-0.57-6.87-0.57-13.77v-34.3h5.98v40.09
			c0,3.67,0.16,6.3,0.47,7.88c0.51,2.72,1.68,5,3.52,6.84c2.98,2.98,7.12,4.46,12.45,4.46c4.88,0,8.68-1.36,11.4-4.08
			c2.09-2.09,3.39-4.69,3.89-7.79c0.32-2.09,0.47-6.71,0.47-13.87V26.69h5.98V57.18z"/>
		<path d="M259.14,90.05h-6.08V26.69h6.08V90.05z"/>
	</g>
</g>

<g class="logo" id="white">
	<g>
		<path d="M16.2,89.79H0V2.91h16.2V89.79z"/>
		<path d="M84.84,59.67c0,9.44-2.84,17.1-8.52,22.98c-5.68,5.88-13.08,8.82-22.2,8.82c-8.72,0-15.8-2.86-21.24-8.58
			c-5.44-5.72-8.16-13.14-8.16-22.26c0-9.2,2.86-16.76,8.58-22.68c5.72-5.92,13.06-8.88,22.02-8.88c8.72,0,15.82,2.86,21.3,8.58
			C82.1,43.37,84.84,50.72,84.84,59.67z M68.64,60.39c0-5.36-1.3-9.7-3.9-13.02c-2.6-3.32-5.98-4.98-10.14-4.98
			c-4.16,0-7.48,1.62-9.96,4.86c-2.48,3.24-3.72,7.5-3.72,12.78c0,5.36,1.32,9.7,3.96,13.02c2.64,3.32,6.08,4.98,10.32,4.98
			c4.16,0,7.44-1.6,9.84-4.8C67.44,70.04,68.64,65.75,68.64,60.39z"/>
		<path d="M147.12,88.95c0,5.2-0.28,8.92-0.84,11.16c-0.8,3.68-2.64,6.96-5.52,9.84c-5.2,5.2-12.48,7.8-21.84,7.8
			c-6.96,0-13.32-1.32-19.08-3.96c-3.36-1.6-5.84-3.2-7.44-4.8l6.48-10.56c6.88,3.92,12.96,5.88,18.24,5.88
			c5.76,0,9.72-1.6,11.88-4.8c1.44-2.16,2.16-5.36,2.16-9.6v-3.72c-4.16,2.4-8.76,3.6-13.8,3.6c-8.48,0-15.16-3-20.04-9
			c-4.32-5.44-6.48-12.12-6.48-20.04c0-8.96,2.94-16.48,8.82-22.56c5.88-6.08,13.5-9.12,22.86-9.12c8.08,0,16.28,2.08,24.6,6.24
			V88.95z M131.16,73.83v-30c-2.8-1.2-5.76-1.8-8.88-1.8c-4.32,0-7.94,1.6-10.86,4.8c-2.92,3.2-4.38,7.56-4.38,13.08
			c0,5.28,1.36,9.42,4.08,12.42c2.72,3,6.04,4.5,9.96,4.5c2.16,0,4.44-0.44,6.84-1.32C129.6,74.79,130.68,74.24,131.16,73.83z"/>
	</g>
	<path d="M277.57,6.79v101.34H176.23V6.79H277.57 M281.57,2.79H172.23v109.34h109.34V2.79L281.57,2.79z"/>
	<g>
		<path d="M237.67,57.18c0,8.61-0.16,14.06-0.47,16.34c-0.63,5-2.34,8.9-5.13,11.68c-3.99,3.99-9.47,5.99-16.44,5.99
			s-12.51-2.06-16.62-6.18c-2.6-2.6-4.24-6.02-4.94-10.26c-0.38-2.28-0.57-6.87-0.57-13.77v-34.3h5.98v40.09
			c0,3.67,0.16,6.3,0.47,7.88c0.51,2.72,1.68,5,3.52,6.84c2.98,2.98,7.12,4.46,12.45,4.46c4.88,0,8.68-1.36,11.4-4.08
			c2.09-2.09,3.39-4.69,3.89-7.79c0.32-2.09,0.47-6.71,0.47-13.87V26.69h5.98V57.18z"/>
		<path d="M259.14,90.05h-6.08V26.69h6.08V90.05z"/>
	</g>
</g>
</svg>
