<?xml version="1.0" encoding="utf-8"?>
<!-- Generator: Adobe Illustrator 24.0.0, SVG Export Plug-In . SVG Version: 6.00 Build 0)  -->
<svg version="1.1" id="Layer_1" xmlns="http://www.w3.org/2000/svg" xmlns:xlink="http://www.w3.org/1999/xlink" x="0px" y="0px"
	 viewBox="0 0 162.02 63.23" style="enable-background:new 0 0 162.02 63.23;" xml:space="preserve">
<style type="text/css">
	.st0{fill:#009EE2;}
	.st1{fill:#1D1D1B;}
</style>
<g>
	<path class="st0" d="M61.88,31.49c0,0.36,0,19.61,0,19.61c-0.07,7.48-5.6,11.95-14.77,11.95c-9.17,0-14.69-4.47-14.77-11.95
		c0,0,0-19.24,0-19.61c0.35,0,7.95,0,8.3,0c0,0.36,0,19.18,0,19.18c0,4.12,2.48,6.69,6.47,6.69c3.99,0,6.47-2.56,6.47-6.69
		c0,0,0-18.81,0-19.18C53.93,31.49,61.54,31.49,61.88,31.49"/>
	<path class="st1" d="M104.35,49.63l0,0.19h11.42v-0.18c0-4.28-2.03-6.64-5.73-6.64C106.34,42.98,104.38,46.33,104.35,49.63
		 M100.43,51.88c0-5.57,2.6-11.52,9.91-11.52c5.8,0,9.4,3.87,9.4,10.09c0,0,0,1.55,0,1.85c-0.36,0-15.48,0-15.48,0v0.18
		c0,5.05,2.11,7.94,5.79,7.94c3.29,0,4.91-1.34,5.43-4.42c0.24,0,3.52,0,3.95,0c-0.69,4.46-4.09,7.04-9.42,7.04
		C101.67,63.05,100.43,56.05,100.43,51.88z"/>
	<path class="st1" d="M128.85,31.49c0,0.36,0,30.55,0,30.91c-0.32,0-3.43,0-3.75,0c0-0.36,0-30.55,0-30.91
		C125.42,31.49,128.53,31.49,128.85,31.49"/>
	<path class="st1" d="M27.9,31.49c0,0.34,0,5.36,0,5.7c-0.36,0-9.71,0-9.71,0s0,24.85,0,25.21c-0.35,0-7.95,0-8.3,0
		c0-0.36,0-25.21,0-25.21s-9.35,0-9.71,0c0-0.34,0-5.36,0-5.7C0.55,31.49,27.54,31.49,27.9,31.49"/>
	<path class="st1" d="M9.03,25.36l-0.05-0.26c-1.59-7.25,2.25-13.01,11.4-17.13c1.96-0.88,4.17-1.44,6.32-1.99
		c3.76-0.96,7.65-1.95,10.34-4.65c0,0,0.6-1,0.6-1c0.25,0.04,0.24,0.54-0.05,1.3c-0.6,1.62-2.9,3.23-5.34,4.93
		c-3.05,2.13-6.2,4.34-6.2,6.82c0,1.19,0.36,2.07,1.09,2.6c0.82,0.6,2.07,0.7,3.44,0.27c0.95-0.3,2.11-0.99,3.1-1.86
		c0,0,0.19-0.17,0.19-0.17c0.12-0.11,0.37-0.35,0.44-0.33c0.06,0.05,0.07,0.29-0.1,0.69c-1.68,5.83-7.76,14.11-14.85,14.57
		c-0.01,0-0.97-0.01-0.97-0.01c-0.01-0.08,0.42-0.26,0.79-0.42l1.26-0.67c2.85-2.22,3.69-4.46,4.3-8.09
		c0.07-0.41,0.19-1.38-0.18-1.5c-0.34-0.12-0.54,0.25-0.85,0.8c-0.86,1.51-2.79,2.96-4.31,2.87c-0.82-0.05-1.43-0.54-1.8-1.45
		c-0.54-1.31,0.34-2.59,1.35-4.07c0.8-1.16,1.7-2.47,2.04-4.01l0.09-1.13l-0.26-0.02c-0.25-0.02-0.59,0.33-1.02,1.06
		c-0.92,1.56-2.54,2.77-4.27,4.06c-2.9,2.17-5.89,4.41-5.84,8.54c0.01,0.74,0.02,1.98-0.17,2.09C9.44,27.11,9.26,26.49,9.03,25.36"
		/>
	<path class="st1" d="M137.83,41.02h0.18v-4.25c0-3.71,2.47-5.93,6.62-5.93c0,0,2.5,0.37,2.76,0.41c0,0.27,0,2.73,0,3.06
		c-0.21-0.02-0.56-0.04-0.56-0.04l-1.34-0.07c-2.42,0-3.74,0.5-3.74,3.13v3.7c0,0,4.68,0,5.02,0c0,0.3,0,2.19,0,2.5
		c-0.34,0-5.02,0-5.02,0s0,18.52,0,18.88c-0.32,0-3.43,0-3.75,0c0-0.36,0-18.88,0-18.88s-3.91,0-4.24,0c0-0.3,0-2.19,0-2.5
		C134.1,41.02,137.83,41.02,137.83,41.02"/>
	<path class="st1" d="M157,35.15c0,0.46,0,5.87,0,5.87s4.68,0,5.03,0c0,0.3,0,2.19,0,2.5c-0.34,0-5.03,0-5.03,0v14.26
		c0,1.51,1.13,2.48,2.87,2.48c0,0,1.62-0.19,1.98-0.24c0,0.34,0,2.51,0,2.79c-0.27,0.03-2.63,0.24-2.63,0.24
		c-5.97,0-5.97-2.67-5.97-5.49V43.52c0,0-3.39,0-3.73,0c0-0.3,0-2.19,0-2.5l3.73,0c0,0,0-4.43,0-4.69
		C153.47,36.26,156.58,35.28,157,35.15"/>
	<path class="st1" d="M81.48,31.49c13.55,0,14.6,11.83,14.6,15.46c0,3.62-1.05,15.45-14.6,15.45c0,0-10.21,0-10.56,0
		c0-0.36,0-30.55,0-30.91C71.28,31.49,81.48,31.49,81.48,31.49 M75.08,34.84h-0.18v24.2h6.59c6.52,0,10.42-4.52,10.42-12.1
		c0-7.58-3.89-12.1-10.42-12.1H75.08z"/>
	<path class="st0" d="M47.12,57.16c4.07,0,6.29-2.71,6.29-6.5V31.3h8.67V51.1C61.98,59.81,55,63.23,47.12,63.23
		c-7.89,0-14.87-3.42-14.95-12.13V31.3h8.67v19.36C40.83,54.46,43.04,57.16,47.12,57.16"/>
	<path class="st1" d="M104.53,49.63c0.03-3.39,2.08-6.46,5.51-6.46c3.99,0,5.54,2.73,5.54,6.46H104.53 M119.92,52.49v-2.04
		c0-6.02-3.41-10.27-9.58-10.27c-6.89,0-10.1,5.33-10.1,11.7c0,6.42,2.78,11.35,9.75,11.35c5.2,0,9.01-2.47,9.67-7.41h-4.33
		c-0.48,3.16-2.08,4.42-5.29,4.42c-4.21,0-5.6-3.74-5.6-7.76H119.92z"/>
	<rect x="124.92" y="31.3" class="st1" width="4.12" height="31.28"/>
	<polyline class="st1" points="9.71,62.58 18.38,62.58 18.38,37.37 28.08,37.37 28.08,31.3 0,31.3 0,37.37 9.71,37.37 9.71,62.58 	
		"/>
	<path class="st1" d="M30.53,16.07c-2.11,0.66-4.29,0.13-4.29-2.69c0-4.31,10.12-7.92,11.53-11.69c0.35-0.94,0.37-1.71-0.08-1.69
		c-0.32,0.02-0.07,0.49-0.78,1.2C32.71,5.39,25.69,5.39,20.3,7.8C16.76,9.39,6.41,14.26,8.79,25.13c0.11,0.52,0.42,2.25,0.74,2.25
		c0.37,0,0.36-1.03,0.35-2.28c-0.08-6.47,7.59-8.28,10.08-12.51c0.3-0.51,0.81-1.22,0.94-0.89c0.06,0.16,0.02,0.39-0.08,0.84
		c-0.78,3.48-4.42,5.71-3.39,8.19c1.33,3.23,5.19,0.82,6.37-1.25c0.32-0.57,0.49-0.94,0.71-0.86c0.16,0.06,0.15,0.71,0.05,1.3
		c-0.63,3.74-1.49,5.84-4.23,7.97c-0.87,0.68-2.25,0.82-2.07,1.35c0.05,0.14,0.64,0.12,1.11,0.07c7.29-0.47,13.39-9.06,15-14.68
		c0.17-0.39,0.22-0.77,0.04-0.9c-0.22-0.17-0.54,0.22-0.87,0.51C32.72,14.98,31.58,15.74,30.53,16.07"/>
	<path class="st1" d="M141.94,62.58V43.7h5.02v-2.86h-5.02v-3.51c0-2.51,1.21-2.95,3.55-2.95c0.69,0,1.39,0.09,2.08,0.13v-3.42
		c-0.96-0.22-1.95-0.43-2.95-0.43c-3.9,0-6.8,1.95-6.8,6.12v4.06h-4.24v2.86h4.24v18.88H141.94"/>
	<path class="st1" d="M149.33,40.84v2.86h3.73v13.86c0,2.89,0.04,5.67,6.16,5.67c0.95,0,1.85-0.09,2.82-0.26v-3.16
		c-0.67,0.16-1.52,0.26-2.17,0.26c-1.47,0-2.68-0.74-2.68-2.29V43.7h5.03v-2.86h-5.03V34.9l-4.12,1.3v4.64L149.33,40.84"/>
	<path class="st1" d="M70.73,62.58h10.75c13.38,0,14.78-11.32,14.78-15.64c0-4.32-1.4-15.64-14.78-15.64H70.73V62.58 M75.08,35.03
		h6.41c7.23,0,10.23,5.46,10.23,11.92s-3,11.91-10.23,11.91h-6.41V35.03z"/>
</g>
</svg>
